<svg xmlns="http://www.w3.org/2000/svg" xmlns:xlink="http://www.w3.org/1999/xlink" width="500" zoomAndPan="magnify" viewBox="0 0 375 374.999991" height="500" preserveAspectRatio="xMidYMid meet" version="1.0"><defs><g/><clipPath id="fc6599057f"><path d="M 108.226562 0 L 260.476562 0 L 260.476562 86 L 108.226562 86 Z M 108.226562 0 " clip-rule="nonzero"/></clipPath><clipPath id="3c2cfb3ec5"><path d="M 53 74 L 309 74 L 309 282 L 53 282 Z M 53 74 " clip-rule="nonzero"/></clipPath><clipPath id="5c1d0b34aa"><path d="M 27.8125 218.394531 L 143.273438 27.902344 L 340.820312 147.636719 L 225.359375 338.128906 Z M 27.8125 218.394531 " clip-rule="nonzero"/></clipPath><clipPath id="d81cfeff2b"><path d="M 27.8125 218.394531 L 143.273438 27.902344 L 340.820312 147.636719 L 225.359375 338.128906 Z M 27.8125 218.394531 " clip-rule="nonzero"/></clipPath><clipPath id="9eab4109d5"><path d="M 129 120.851562 L 171 120.851562 L 171 137 L 129 137 Z M 129 120.851562 " clip-rule="nonzero"/></clipPath><clipPath id="49f7a28eea"><path d="M 164 120.851562 L 247 120.851562 L 247 242 L 164 242 Z M 164 120.851562 " clip-rule="nonzero"/></clipPath><clipPath id="5a35d7c79c"><path d="M 126.390625 210 L 176 210 L 176 243 L 126.390625 243 Z M 126.390625 210 " clip-rule="nonzero"/></clipPath><clipPath id="a138943359"><path d="M 190.089844 154.585938 L 232.839844 154.585938 L 232.839844 201 L 190.089844 201 Z M 190.089844 154.585938 " clip-rule="nonzero"/></clipPath></defs><rect x="-37.5" width="450" fill="#ffffff" y="-37.499999" height="449.999989" fill-opacity="1"/><rect x="-37.5" width="450" fill="#52606e" y="-37.499999" height="449.999989" fill-opacity="1"/><g clip-path="url(#fc6599057f)"><path fill="#f8cf40" d="M 260.390625 29.765625 L 256.226562 33.65625 L 256.839844 36.320312 C 236.855469 58.472656 223.65625 68.949219 219.804688 63.367188 C 216.726562 52.769531 218.269531 42.289062 223.109375 31.894531 L 227.21875 29.96875 L 228.015625 20.847656 L 221.695312 27.46875 L 222.988281 31.90625 C 217.761719 40.671875 212.148438 48.4375 205.726562 54.113281 C 198.96875 60.089844 196.90625 60.925781 192.535156 51.527344 C 189.292969 44.566406 188.183594 35.238281 186.007812 27.09375 L 191.542969 20.628906 L 184.308594 0.0195312 L 177.074219 20.628906 L 182.609375 27.089844 C 180.433594 35.234375 179.324219 44.566406 176.082031 51.527344 C 171.710938 60.925781 169.648438 60.085938 162.886719 54.113281 C 156.46875 48.4375 150.855469 40.671875 145.628906 31.90625 L 146.921875 27.46875 L 140.601562 20.851562 L 141.394531 29.96875 L 145.511719 31.894531 C 150.351562 42.292969 151.890625 52.769531 148.816406 63.367188 C 144.960938 68.949219 131.765625 58.472656 111.777344 36.320312 L 112.390625 33.65625 L 108.226562 29.765625 L 109.046875 35.40625 L 111.515625 36.398438 L 139.988281 85.96875 L 131.246094 61.886719 C 131.421875 62.03125 131.601562 62.175781 131.777344 62.316406 C 136.234375 65.886719 144.046875 71.667969 149.96875 68.222656 C 150.96875 67.640625 151.808594 66.839844 152.46875 65.886719 L 152.875 65.296875 L 153.078125 64.605469 C 154.269531 60.492188 154.828125 56.40625 154.835938 52.363281 C 156.460938 54.15625 158.164062 55.859375 159.953125 57.4375 C 162.960938 60.097656 166.773438 63.605469 171.121094 62.960938 C 175.824219 62.269531 178.316406 57.253906 180.105469 53.398438 C 182.097656 49.125 183.289062 44.359375 184.308594 39.6875 C 185.335938 44.359375 186.523438 49.125 188.511719 53.398438 C 190.308594 57.253906 192.796875 62.269531 197.496094 62.960938 C 201.847656 63.601562 205.660156 60.097656 208.667969 57.4375 C 210.457031 55.859375 212.160156 54.15625 213.785156 52.363281 C 213.792969 56.40625 214.351562 60.492188 215.542969 64.605469 L 215.742188 65.296875 L 216.152344 65.886719 C 216.8125 66.839844 217.648438 67.640625 218.652344 68.222656 C 224.574219 71.667969 232.382812 65.886719 236.839844 62.316406 C 237.019531 62.175781 237.195312 62.03125 237.375 61.886719 L 229.699219 84.1875 L 257.101562 36.398438 L 259.574219 35.40625 Z M 260.390625 29.765625 " fill-opacity="1" fill-rule="evenodd"/></g><path fill="#f8cf40" d="M 169.363281 48.164062 C 169.875 50.492188 170.449219 52.847656 171.226562 55.097656 C 171.75 54.414062 172.453125 53.277344 173.382812 51.363281 C 171.964844 46.132812 171.191406 40.1875 169.363281 35.40625 C 167.390625 40.574219 166.644531 47.101562 164.988281 52.617188 C 165.71875 53.261719 166.6875 54.09375 167.609375 54.785156 C 168.335938 52.628906 168.878906 50.382812 169.363281 48.164062 Z M 169.363281 48.164062 " fill-opacity="1" fill-rule="evenodd"/><path fill="#f8cf40" d="M 199.210938 48.164062 C 199.699219 50.390625 200.246094 52.648438 200.976562 54.808594 C 201.894531 54.125 202.855469 53.296875 203.597656 52.648438 C 201.933594 47.125 201.1875 40.582031 199.210938 35.40625 C 197.394531 40.167969 196.617188 46.089844 195.207031 51.304688 C 196.132812 53.214844 196.839844 54.367188 197.363281 55.058594 C 198.132812 52.820312 198.703125 50.476562 199.210938 48.164062 Z M 199.210938 48.164062 " fill-opacity="1" fill-rule="evenodd"/><path fill="#f8cf40" d="M 225.589844 61.53125 C 226.132812 57.988281 227.054688 54.261719 227.148438 50.9375 C 225.054688 53.148438 223.222656 56.089844 221.304688 58.789062 C 221.484375 59.773438 221.703125 60.75 221.960938 61.726562 C 222.542969 60.96875 223.097656 60.1875 223.640625 59.410156 C 223.46875 60.367188 223.3125 61.335938 223.1875 62.308594 C 223.78125 62.234375 224.566406 62.007812 225.589844 61.53125 Z M 225.589844 61.53125 " fill-opacity="1" fill-rule="evenodd"/><path fill="#f8cf40" d="M 147.3125 58.789062 C 145.394531 56.089844 143.5625 53.148438 141.46875 50.933594 C 141.5625 54.261719 142.484375 57.984375 143.027344 61.527344 C 144.050781 62.007812 144.832031 62.234375 145.429688 62.308594 C 145.304688 61.335938 145.144531 60.363281 144.972656 59.40625 C 145.515625 60.1875 146.074219 60.96875 146.65625 61.726562 C 146.914062 60.753906 147.136719 59.773438 147.3125 58.789062 Z M 147.3125 58.789062 " fill-opacity="1" fill-rule="evenodd"/><g clip-path="url(#3c2cfb3ec5)"><g clip-path="url(#5c1d0b34aa)"><g clip-path="url(#d81cfeff2b)"><path fill="#f8cf40" d="M 305.746094 204.5625 C 305.3125 204.863281 303.03125 206.152344 300.675781 207.425781 C 298.320312 208.703125 295.222656 210.480469 293.792969 211.378906 C 292.363281 212.277344 290.332031 213.316406 289.28125 213.691406 C 288.234375 214.066406 287.253906 214.570312 287.109375 214.808594 C 286.964844 215.050781 286.457031 216.378906 285.980469 217.765625 C 283.917969 223.792969 281.679688 228.355469 276.957031 236.160156 C 272.058594 244.257812 270.015625 247.039062 264.609375 252.96875 C 254.074219 264.523438 240.980469 273.699219 227.074219 279.265625 C 223.328125 280.769531 222.507812 281.054688 220.277344 281.644531 C 219.007812 281.980469 218.460938 282.097656 219.0625 281.902344 C 221.484375 281.117188 230.121094 277.246094 233.894531 275.257812 C 256.457031 263.363281 273.894531 243.984375 283.105469 220.550781 C 283.625 219.230469 284.042969 217.847656 284.027344 217.476562 C 284.011719 216.964844 283.230469 216.03125 280.75 213.578125 C 278.957031 211.804688 277.40625 210.375 277.300781 210.398438 C 277.199219 210.425781 276.628906 212.128906 276.035156 214.1875 C 274.753906 218.621094 272.695312 224.113281 270.507812 228.945312 C 268.535156 233.296875 262.199219 243.898438 259.339844 247.625 C 253.289062 255.511719 246.230469 262.539062 238.457031 268.421875 C 236.398438 269.980469 229.683594 274.269531 229.488281 274.152344 C 229.421875 274.109375 229.730469 273.816406 230.179688 273.496094 C 230.628906 273.175781 232.351562 271.953125 234.007812 270.777344 C 249.644531 259.671875 262.308594 244.105469 269.664062 226.945312 C 272.613281 220.0625 275.921875 209.410156 275.46875 208.25 C 275.378906 208.023438 274.023438 205.902344 272.457031 203.539062 C 269.4375 198.984375 269.007812 198.078125 269.628906 197.59375 C 270.222656 197.132812 271.652344 197.550781 274.332031 198.964844 C 275.675781 199.679688 276.878906 200.207031 277.003906 200.144531 C 277.128906 200.082031 277.339844 199.132812 277.476562 198.03125 L 277.722656 196.03125 L 276.488281 194.886719 C 272.59375 191.269531 269.871094 186.113281 269.609375 181.851562 C 269.449219 179.257812 270.796875 179.328125 275.257812 182.152344 C 277.152344 183.355469 277.871094 183.699219 278.003906 183.480469 C 278.308594 182.976562 277.96875 177.917969 277.25 172.335938 C 276.832031 169.082031 276.816406 169.039062 275.398438 167.464844 C 272.101562 163.804688 269.59375 158.933594 268.003906 153.113281 C 267.382812 150.835938 267.269531 149.929688 267.558594 149.457031 C 268.078125 148.601562 269.132812 148.460938 270.195312 149.105469 C 271.394531 149.832031 271.570312 149.367188 270.800781 147.496094 C 261.78125 125.515625 246.109375 107.632812 225.921875 96.277344 C 216.425781 90.9375 208.082031 87.742188 197.355469 85.335938 C 178.535156 81.109375 158.472656 82.414062 140.261719 89.039062 C 135.335938 90.832031 133.605469 91.652344 130.09375 93.859375 C 119.246094 100.679688 109.238281 110.058594 101.644531 120.515625 C 98.644531 124.644531 92.429688 135.355469 90.558594 139.617188 C 88.253906 144.863281 86.253906 150.671875 84.804688 156.335938 L 84.191406 158.730469 L 85.710938 159.433594 C 88.792969 160.855469 91.460938 163.457031 95.25 168.734375 C 96.285156 170.175781 97.722656 172.050781 98.449219 172.902344 C 99.765625 174.445312 99.992188 175.222656 99.179688 175.421875 C 98.636719 175.554688 92.589844 172.96875 90.457031 171.695312 C 87.78125 170.089844 86.757812 168.667969 84.601562 163.519531 C 84.285156 162.761719 83.90625 162.113281 83.757812 162.085938 C 83.28125 161.988281 81.742188 172.648438 82.125 173.402344 C 82.21875 173.585938 83.261719 173.917969 84.445312 174.144531 C 87.15625 174.664062 90.644531 176.617188 92.164062 178.460938 C 95.214844 182.175781 102.550781 192.164062 102.488281 192.523438 C 102.34375 193.328125 101.410156 193.175781 97.28125 191.683594 C 88.617188 188.554688 85.371094 185.488281 82.464844 177.703125 C 82.277344 177.195312 82.015625 176.804688 81.882812 176.835938 C 81.402344 176.953125 81.597656 188.976562 82.136719 192.382812 L 82.328125 193.597656 L 84.59375 194.589844 C 86.257812 195.316406 87.386719 195.992188 88.847656 197.144531 C 93.417969 200.734375 94.824219 203.09375 99.617188 215.226562 C 102.515625 222.5625 102.636719 223.53125 100.578125 223.09375 C 99.023438 222.761719 93.902344 218.101562 91.351562 214.699219 C 87.804688 209.964844 85.53125 205.585938 83.914062 200.386719 C 83.5 199.046875 83.101562 198.046875 83.027344 198.167969 C 82.785156 198.570312 84.050781 204.992188 85.222656 209.308594 C 86.53125 214.105469 89.289062 221.894531 89.789062 222.199219 C 89.96875 222.308594 91.148438 222.726562 92.414062 223.132812 C 95.183594 224.019531 97.453125 225.34375 99.09375 227.03125 C 101.453125 229.457031 106.355469 236.300781 106.230469 236.992188 C 106.015625 238.1875 104.875 238.082031 101.359375 236.542969 C 99.160156 235.582031 96.78125 233.929688 94.882812 232.046875 L 94.367188 231.535156 L 94.628906 232.367188 C 94.96875 233.445312 98.921875 239.792969 101.445312 243.304688 C 107.34375 251.519531 115.34375 259.613281 123.980469 266.105469 C 129.671875 270.386719 138.804688 275.539062 145.988281 278.527344 C 148.523438 279.582031 148.734375 279.710938 148.875 280.308594 C 149.246094 281.875 146.839844 281.132812 138.1875 277.019531 C 134.253906 275.144531 122.519531 267.714844 119.082031 264.917969 C 105.867188 254.164062 95.980469 241.574219 89.007812 226.628906 C 88.199219 224.894531 87.441406 223.417969 87.316406 223.34375 C 87.195312 223.269531 86.480469 224.214844 85.726562 225.4375 C 84.976562 226.664062 83.910156 228.136719 83.355469 228.710938 C 82.144531 229.96875 82.15625 230.03125 84.378906 234.21875 C 85.96875 237.214844 86.257812 237.558594 86.648438 236.902344 C 87.066406 236.199219 87.777344 233.535156 87.695312 232.980469 C 87.605469 232.371094 88.203125 231.8125 88.652344 232.085938 C 89.292969 232.472656 91.097656 235.535156 91.523438 236.957031 C 92.078125 238.800781 91.890625 241.34375 91.109375 242.644531 C 90.785156 243.1875 90.523438 243.8125 90.527344 244.039062 C 90.539062 244.589844 93.816406 249.0625 96.742188 252.515625 C 104.335938 261.488281 112.15625 268.140625 122.730469 274.632812 C 126.90625 277.195312 128.28125 278.136719 127.757812 278.066406 C 126.480469 277.894531 113.964844 270.132812 110.375 267.285156 C 103.59375 261.90625 97.136719 255.421875 92.066406 248.902344 C 90.828125 247.3125 89.703125 245.945312 89.566406 245.859375 C 89.429688 245.777344 89.148438 245.839844 88.9375 246.003906 C 88.414062 246.410156 87.152344 248.578125 86.652344 249.925781 C 85.875 252.035156 84.605469 251.921875 84.210938 249.710938 C 83.851562 247.683594 84.210938 245.136719 85.421875 241.128906 C 85.742188 240.0625 85.671875 239.769531 84.691406 238.074219 C 84.09375 237.042969 83.089844 235.242188 82.460938 234.070312 C 81.832031 232.894531 81.179688 231.851562 81.007812 231.75 C 80.820312 231.636719 80.136719 232.164062 79.265625 233.089844 C 77.050781 235.449219 76.792969 235.753906 75.074219 238.035156 C 74.1875 239.210938 73.3125 240.207031 73.125 240.253906 C 72.328125 240.449219 72.214844 239.464844 72.777344 237.226562 C 74.050781 232.160156 74.695312 230.359375 76.269531 227.464844 L 77.859375 224.539062 L 76.238281 219.894531 C 75.347656 217.339844 74.207031 213.726562 73.699219 211.863281 C 73.117188 209.722656 72.644531 208.515625 72.410156 208.574219 C 71.8125 208.71875 67.527344 212.101562 63.644531 215.488281 C 61.660156 217.21875 59.800781 218.671875 59.515625 218.710938 C 57.457031 219.019531 58.195312 214.335938 60.894531 209.972656 C 62.355469 207.609375 64.972656 204.863281 68.867188 201.609375 C 69.800781 200.828125 70.6875 199.992188 70.832031 199.753906 C 70.976562 199.511719 70.914062 197.382812 70.695312 195.019531 C 70.476562 192.65625 70.28125 189.484375 70.257812 187.972656 C 70.234375 186.464844 70.101562 185.160156 69.96875 185.074219 C 69.441406 184.738281 59.082031 187.28125 56.710938 188.324219 C 55.355469 188.921875 54.121094 189.410156 53.964844 189.410156 C 53.808594 189.414062 53.613281 189.125 53.527344 188.777344 C 53.410156 188.289062 53.554688 187.917969 54.128906 187.238281 C 57.335938 183.445312 61.84375 180.527344 67.773438 178.414062 C 69.023438 177.96875 70.140625 177.441406 70.261719 177.242188 C 70.382812 177.042969 70.652344 175.289062 70.859375 173.34375 C 71.066406 171.398438 71.410156 168.832031 71.617188 167.640625 C 71.828125 166.449219 71.917969 165.425781 71.816406 165.363281 C 71.570312 165.214844 68.550781 166.242188 65.441406 167.53125 C 62.175781 168.886719 61.351562 168.480469 62.75 166.203125 C 63.894531 164.339844 67.109375 162.132812 70.898438 160.613281 C 71.996094 160.171875 72.992188 159.648438 73.113281 159.449219 C 73.234375 159.25 73.941406 157.097656 74.683594 154.664062 C 83.007812 127.332031 101.792969 104.703125 126.855469 91.808594 C 128.480469 90.972656 132.109375 89.101562 134.921875 87.648438 C 148.789062 80.496094 161.386719 76.679688 175.648438 75.304688 C 202.195312 72.75 229.070312 80.394531 250.257812 96.523438 C 261.40625 105.011719 271.320312 116.214844 278.011719 127.894531 C 278.90625 129.457031 279.738281 130.714844 279.855469 130.683594 C 279.972656 130.65625 280.1875 130.144531 280.332031 129.550781 C 281.976562 122.6875 282.734375 120.933594 283.835938 121.40625 C 284.675781 121.761719 285.785156 124.671875 286.238281 127.691406 C 286.75 131.125 287.085938 139.371094 286.875 143.375 C 286.710938 146.53125 286.785156 147.042969 287.992188 151.039062 C 288.703125 153.398438 289.5 156.292969 289.757812 157.476562 C 290.019531 158.65625 290.308594 159.605469 290.402344 159.582031 C 290.496094 159.558594 290.902344 158.617188 291.304688 157.484375 C 291.871094 155.882812 293.019531 153.796875 296.5 148.0625 C 298.953125 144.011719 301.222656 140.492188 301.542969 140.242188 C 302.828125 139.238281 303.808594 140.324219 304.390625 143.394531 C 305.402344 148.726562 303.652344 152.886719 296.765625 161.523438 C 294.875 163.894531 292.953125 166.449219 292.5 167.203125 C 291.722656 168.484375 291.6875 168.730469 291.925781 171.199219 C 292.242188 174.464844 292.492188 180.660156 292.410156 183.144531 C 292.375 184.167969 292.421875 185.050781 292.511719 185.105469 C 292.601562 185.160156 293.167969 184.695312 293.773438 184.078125 C 294.378906 183.457031 296.539062 181.792969 298.574219 180.378906 C 300.609375 178.964844 303.253906 176.949219 304.449219 175.898438 C 307.628906 173.109375 307.671875 173.082031 308.238281 173.546875 C 309.25 174.375 308.179688 178.625 306.089844 182.097656 C 304.078125 185.433594 302.496094 186.734375 297.863281 188.851562 C 295.816406 189.789062 293.710938 190.675781 293.1875 190.820312 C 292.664062 190.96875 292.167969 191.195312 292.089844 191.324219 C 292.011719 191.453125 291.742188 193.246094 291.492188 195.308594 C 291.246094 197.367188 290.605469 201.027344 290.070312 203.441406 C 289.539062 205.851562 289.183594 207.875 289.285156 207.9375 C 289.382812 207.996094 290.09375 207.546875 290.855469 206.933594 C 291.621094 206.316406 293.121094 205.40625 294.191406 204.90625 C 297.804688 203.21875 305.882812 201.605469 306.761719 202.394531 C 307.253906 202.835938 306.78125 203.839844 305.746094 204.5625 Z M 286.59375 209.921875 C 287.710938 205.808594 288.480469 202.207031 288.3125 201.878906 C 288.246094 201.753906 287.078125 201.195312 285.71875 200.648438 C 284.359375 200.097656 282.457031 199.167969 281.492188 198.585938 C 279.40625 197.320312 279.347656 197.367188 279.078125 200.429688 L 278.902344 202.46875 L 280.988281 205.917969 C 282.132812 207.816406 283.527344 210.332031 284.082031 211.511719 C 284.632812 212.691406 285.15625 213.695312 285.238281 213.746094 C 285.484375 213.898438 285.621094 213.519531 286.59375 209.921875 Z M 289.96875 190.503906 C 290.449219 184.542969 290.476562 176.460938 290.015625 175.859375 C 289.902344 175.707031 289.28125 175.46875 288.632812 175.332031 C 286.820312 174.9375 284.300781 173.84375 281.988281 172.445312 C 280.832031 171.742188 279.78125 171.226562 279.65625 171.289062 C 279.53125 171.351562 279.554688 172.667969 279.710938 174.214844 C 279.972656 176.84375 280.222656 181.6875 280.261719 184.835938 C 280.277344 186.03125 280.457031 186.429688 281.59375 187.761719 C 283.582031 190.09375 285.597656 192.992188 287.148438 195.75 C 287.917969 197.117188 288.660156 198.304688 288.792969 198.382812 C 289.144531 198.597656 289.519531 196.066406 289.96875 190.503906 Z M 289.085938 166.007812 C 288.433594 162.039062 287.542969 157.972656 286.5 154.164062 L 285.726562 151.355469 L 283.972656 150.101562 C 280.246094 147.4375 278.625 142.996094 279.105469 136.753906 C 279.25 134.867188 278.640625 133.570312 274.390625 126.734375 C 267.824219 116.175781 259.820312 107.347656 249.234375 98.988281 C 245.796875 96.273438 233.5625 88.957031 229.222656 87.019531 C 211.175781 78.964844 191.679688 76.042969 172.5625 78.53125 C 168.53125 79.058594 163.535156 79.992188 162.925781 80.335938 C 162.34375 80.667969 162.503906 80.667969 166.492188 80.347656 C 184.847656 78.875 201.730469 81.863281 219.484375 89.722656 C 223.8125 91.640625 235.148438 98.410156 238.414062 101.027344 C 249.761719 110.128906 257.296875 118.316406 263.820312 128.636719 C 268.796875 136.507812 272.117188 143.539062 275.109375 152.539062 C 275.320312 153.175781 276.449219 154.730469 277.929688 156.425781 C 279.289062 157.984375 282.316406 161.683594 284.660156 164.648438 C 287 167.613281 289.066406 170.125 289.246094 170.234375 C 289.734375 170.53125 289.703125 169.761719 289.085938 166.007812 Z M 84.910156 216.640625 C 83.472656 212.507812 82.082031 207.472656 81.246094 203.355469 C 80.816406 201.25 80.414062 199.457031 80.351562 199.375 C 80.289062 199.289062 79.527344 200.390625 78.652344 201.816406 C 77.625 203.5 76.617188 204.828125 75.78125 205.609375 L 74.488281 206.8125 L 75.832031 212.085938 C 77.242188 217.613281 78.890625 222.535156 79.449219 222.871094 C 79.632812 222.984375 80.113281 222.792969 80.519531 222.445312 C 80.925781 222.101562 82.238281 221.296875 83.433594 220.660156 C 84.628906 220.019531 85.648438 219.433594 85.707031 219.355469 C 85.761719 219.277344 85.402344 218.054688 84.910156 216.640625 Z M 79.304688 189.960938 C 79.15625 188.019531 79.011719 184.78125 78.992188 182.769531 C 78.96875 180.753906 78.9375 179.03125 78.921875 178.933594 C 78.859375 178.574219 78.074219 179.203125 77.226562 180.292969 C 76.738281 180.914062 75.441406 182.023438 74.335938 182.757812 L 72.328125 184.09375 L 72.355469 187.109375 C 72.390625 190.898438 72.898438 197.507812 73.183594 197.828125 C 73.390625 198.0625 78.992188 194.433594 79.382812 193.808594 C 79.492188 193.636719 79.457031 191.90625 79.304688 189.960938 Z M 79.472656 171.40625 C 79.617188 169.722656 79.882812 167.394531 80.066406 166.234375 C 80.253906 165.074219 80.382812 163.929688 80.359375 163.691406 C 80.332031 163.375 79.539062 163.449219 77.445312 163.96875 C 75.867188 164.359375 74.53125 164.746094 74.480469 164.828125 C 74.164062 165.351562 72.726562 175.855469 72.875 176.574219 C 72.941406 176.902344 78.652344 175.304688 78.9375 174.878906 C 79.089844 174.652344 79.332031 173.089844 79.472656 171.40625 Z M 81.589844 158.054688 C 84.980469 141.941406 93.746094 124.621094 105.121094 111.539062 C 106.304688 110.175781 107.261719 109.003906 107.242188 108.933594 C 107.136719 108.503906 103.125 112.226562 99.65625 115.972656 C 90.921875 125.394531 83.585938 137.3125 78.988281 149.550781 C 77.445312 153.65625 75.871094 158.605469 75.96875 159.046875 C 76.050781 159.414062 81.03125 160.019531 81.234375 159.6875 C 81.242188 159.671875 81.402344 158.9375 81.589844 158.054688 Z M 81.589844 158.054688 " fill-opacity="1" fill-rule="nonzero"/></g></g></g><g clip-path="url(#9eab4109d5)"><path fill="#f8cf40" d="M 161.605469 125.328125 C 162.777344 124.953125 167.636719 124.160156 170.359375 123.773438 C 170.75 123.1875 170.75 121.242188 170.359375 120.851562 C 166.082031 120.851562 157.71875 121.4375 150.910156 121.4375 C 141.574219 121.4375 134.378906 120.851562 129.710938 120.851562 C 129.320312 121.4375 129.320312 123.1875 129.710938 123.773438 C 131.65625 123.964844 135.546875 124.160156 137.878906 124.746094 C 141.664062 125.652344 149.210938 128.511719 150.804688 136.941406 C 151.226562 133.789062 153.3125 127.976562 161.605469 125.328125 Z M 161.605469 125.328125 " fill-opacity="1" fill-rule="nonzero"/></g><g clip-path="url(#49f7a28eea)"><path fill="#f8cf40" d="M 246.210938 238.332031 C 237.074219 238.136719 233.375 237.554688 230.070312 235.996094 C 228.128906 235.023438 226.570312 234.054688 224.234375 232.300781 C 212.957031 223.550781 175.804688 182.121094 173.46875 176.871094 L 173.46875 176.285156 C 183.972656 165.785156 198.171875 150.03125 210.621094 136.414062 C 218.984375 127.078125 222.292969 125.136719 232.792969 123.773438 C 233.570312 123.191406 233.375 121.246094 232.792969 120.855469 C 227.347656 121.246094 222.484375 121.4375 212.371094 121.4375 C 205.175781 121.4375 199.535156 120.851562 193.503906 120.851562 C 192.921875 121.242188 192.726562 123.382812 193.3125 123.773438 C 197.589844 124.355469 199.925781 124.941406 202.257812 125.519531 C 205.371094 126.300781 206.535156 127.464844 206.535156 128.828125 C 206.535156 131.160156 205.371094 133.882812 201.867188 138.355469 C 191.75 151.042969 177.058594 167.304688 166.941406 175.175781 C 167.238281 179.257812 165.898438 182.832031 164.1875 185.777344 C 175.988281 200.476562 200.371094 228.007812 208.09375 234.828125 C 212.761719 238.71875 215.289062 239.886719 217.234375 240.46875 C 221.316406 241.828125 238.628906 241.828125 245.824219 241.246094 C 246.605469 241.054688 246.796875 238.527344 246.210938 238.332031 Z M 246.210938 238.332031 " fill-opacity="1" fill-rule="nonzero"/></g><g clip-path="url(#5a35d7c79c)"><path fill="#f8cf40" d="M 175.171875 239.535156 C 169.195312 238.617188 166.664062 238.386719 163.445312 237.46875 C 156.847656 236.101562 152.425781 225.773438 152.414062 216.066406 C 152.414062 216.066406 152.242188 210.925781 151.722656 210.574219 C 151.683594 210.898438 151.105469 235.296875 136.089844 238.15625 L 127.125 239.535156 C 126.664062 239.992188 126.433594 242.523438 127.125 242.984375 C 129.882812 242.984375 140.457031 242.292969 152.414062 242.292969 C 163.214844 242.292969 171.265625 242.984375 174.941406 242.984375 C 175.398438 242.753906 175.855469 239.996094 175.171875 239.535156 Z M 175.171875 239.535156 " fill-opacity="1" fill-rule="nonzero"/></g><path fill="#f8cf40" d="M 165.714844 172.679688 C 165.59375 171.707031 165.417969 170.738281 165.277344 169.765625 C 165.027344 168.066406 164.9375 166.359375 165.042969 164.644531 C 165.066406 164.261719 165.113281 163.875 164.902344 163.515625 C 164.773438 163.289062 164.460938 163.183594 164.242188 163.320312 C 164.097656 163.410156 163.957031 163.511719 163.835938 163.628906 C 163.058594 164.371094 162.355469 165.171875 161.828125 166.113281 C 161.089844 167.417969 160.355469 168.722656 159.597656 170.011719 C 158.699219 171.539062 158.167969 173.183594 157.851562 174.929688 C 157.492188 176.917969 157.457031 178.925781 157.367188 180.929688 C 157.355469 181.1875 157.320312 181.441406 157.296875 181.695312 C 157.261719 182.292969 157.476562 182.90625 157.210938 183.492188 C 157.277344 184.648438 157.246094 185.796875 157.074219 186.941406 C 157.210938 187.046875 157.230469 187.183594 157.183594 187.339844 C 157.195312 188.789062 157.199219 190.238281 157.226562 191.683594 C 157.230469 191.960938 157.140625 192.191406 157.035156 192.414062 C 156.335938 193.902344 156.121094 195.523438 155.777344 197.101562 C 155.4375 198.644531 155.046875 200.167969 154.484375 201.644531 C 154.488281 202.316406 154.28125 202.933594 153.984375 203.75 C 153.730469 202.878906 153.957031 202.253906 154.042969 201.625 C 154.109375 200.601562 154.128906 199.574219 154.25 198.5625 C 154.5625 195.925781 154.660156 193.28125 154.664062 190.628906 C 154.664062 188.664062 154.683594 186.699219 154.546875 184.738281 C 154.460938 183.503906 154.402344 182.265625 154.269531 181.035156 C 154.175781 180.167969 154.308594 179.324219 154.421875 178.480469 C 154.644531 176.789062 154.84375 175.089844 155.109375 173.40625 C 155.417969 171.429688 155.582031 169.441406 155.722656 167.449219 C 155.726562 167.453125 155.726562 167.457031 155.726562 167.457031 C 156.3125 166.039062 157.007812 164.222656 157.605469 162.804688 C 158.191406 161.414062 158.816406 160.023438 159.851562 158.867188 C 160.058594 158.636719 160.191406 158.457031 160.527344 158.480469 C 161.371094 158.546875 162.054688 158.15625 162.621094 157.597656 C 163.261719 156.960938 163.59375 156.183594 163.421875 155.253906 C 163.296875 154.578125 162.96875 154.242188 162.277344 154.15625 C 161.21875 154.023438 160.460938 154.550781 159.875 155.355469 C 159.609375 155.71875 159.414062 156.132812 159.226562 156.546875 C 159 157.035156 158.824219 157.535156 159.035156 158.089844 C 159.183594 158.46875 159.035156 158.796875 158.839844 159.132812 C 158.167969 160.308594 157.519531 161.5 156.863281 162.679688 C 156.839844 162.941406 156.742188 163.167969 156.570312 163.363281 C 156.378906 163.816406 156.183594 164.269531 155.992188 164.726562 C 155.972656 164.78125 155.949219 164.832031 155.929688 164.886719 C 156.003906 163.945312 156.078125 163 156.15625 162.058594 C 156.171875 161.890625 156.222656 161.722656 156.257812 161.558594 C 156.277344 161.300781 156.296875 161.042969 156.316406 160.789062 C 156.335938 160.273438 156.355469 159.757812 156.378906 159.246094 C 156.339844 159.101562 156.355469 158.078125 156.335938 156.9375 C 156.394531 156.824219 156.453125 156.707031 156.511719 156.589844 C 156.683594 156.261719 156.863281 155.972656 156.988281 155.613281 C 157.214844 154.957031 157.355469 154.277344 157.523438 153.605469 C 157.535156 153.546875 157.550781 153.488281 157.566406 153.433594 C 158.191406 151.179688 158.441406 148.820312 158.34375 146.484375 C 158.242188 144.144531 157.785156 141.816406 156.976562 139.621094 C 156.605469 138.605469 156.179688 137.644531 155.707031 136.675781 C 155.457031 136.164062 155.230469 135.644531 155.023438 135.117188 C 154.929688 134.867188 154.753906 134.234375 154.433594 134.234375 C 154.152344 134.234375 153.886719 134.804688 153.785156 135 C 153.457031 135.625 153.292969 136.3125 153.035156 136.964844 C 152.628906 138.003906 152.277344 139.066406 151.984375 140.144531 C 151.410156 142.292969 151.074219 144.511719 151.042969 146.738281 C 151.019531 148.527344 151.539062 150.265625 152.316406 151.863281 C 152.6875 152.625 153.117188 153.355469 153.578125 154.066406 C 153.800781 154.410156 153.988281 154.765625 154.238281 155.085938 C 154.53125 155.453125 154.828125 155.816406 155.09375 156.207031 C 155.351562 156.589844 155.542969 157.015625 155.679688 157.457031 C 155.671875 157.726562 155.664062 157.992188 155.652344 158.261719 C 155.507812 161.464844 155.300781 164.667969 155.179688 167.875 C 155.097656 170.050781 154.882812 172.222656 154.527344 174.375 C 154.5 174.542969 154.425781 174.703125 154.375 174.863281 C 154.347656 175.113281 154.335938 175.367188 154.300781 175.613281 C 154.265625 175.863281 154.328125 176.15625 154.011719 176.4375 C 153.753906 175.871094 153.808594 175.359375 153.710938 174.878906 C 153.582031 174.824219 153.460938 174.753906 153.566406 174.566406 C 153.503906 172.855469 153.21875 171.175781 152.921875 169.5 C 152.628906 167.820312 152.308594 166.148438 151.996094 164.472656 C 151.933594 164.136719 151.882812 163.800781 151.796875 163.46875 C 151.472656 162.238281 151.128906 161.011719 150.804688 159.777344 C 150.457031 158.457031 149.9375 157.199219 149.328125 155.972656 C 148.722656 154.746094 148.402344 153.414062 148.019531 152.105469 C 147.972656 151.957031 148.03125 151.773438 148.042969 151.605469 C 148.007812 151.519531 148.011719 151.441406 148.058594 151.363281 C 147.96875 151.105469 147.945312 150.84375 148.039062 150.582031 C 148.039062 150.324219 148.039062 150.066406 148.039062 149.808594 C 148.050781 148.742188 148.050781 147.671875 148.070312 146.605469 C 148.074219 146.445312 147.976562 143.90625 147.929688 143.007812 C 147.804688 140.554688 147.042969 138.316406 145.679688 136.28125 C 145.195312 135.566406 144.628906 134.925781 143.933594 134.414062 C 142.859375 133.625 141.992188 132.621094 141.09375 131.65625 C 140.363281 130.871094 139.660156 130.066406 138.933594 129.28125 C 138.792969 129.132812 138.605469 129.019531 138.417969 128.921875 C 138.304688 128.863281 138.167969 128.898438 138.089844 129.023438 C 137.921875 129.289062 137.910156 129.589844 137.882812 129.886719 C 137.710938 131.550781 137.816406 133.210938 137.949219 134.871094 C 138.027344 135.851562 138.144531 136.824219 138.292969 137.796875 C 138.671875 140.359375 139.667969 142.71875 140.644531 145.089844 C 140.925781 145.785156 141.375 146.34375 141.84375 146.890625 C 143.300781 148.574219 144.855469 150.167969 146.207031 151.9375 C 146.285156 152.039062 146.34375 152.175781 146.445312 152.234375 C 147.335938 152.761719 147.597656 153.65625 147.90625 154.554688 C 148.128906 155.191406 148.378906 155.835938 148.871094 156.347656 C 149.175781 156.660156 149.296875 157.085938 149.449219 157.484375 C 150.394531 159.929688 150.960938 162.472656 151.410156 165.046875 C 151.667969 166.519531 151.917969 167.992188 152.15625 169.472656 C 152.210938 169.804688 152.203125 170.152344 152.222656 170.488281 C 152.347656 170.59375 152.378906 170.722656 152.335938 170.875 C 152.601562 171.652344 152.605469 172.464844 152.683594 173.265625 C 152.972656 176.140625 153.226562 179.019531 153.480469 181.898438 C 153.519531 182.363281 153.5 182.832031 153.507812 183.300781 C 153.539062 183.882812 153.578125 184.464844 153.605469 185.046875 C 153.609375 185.160156 153.554688 185.292969 153.402344 185.261719 C 153.339844 185.25 153.253906 185.164062 153.238281 185.09375 C 153.089844 184.402344 152.953125 183.707031 152.8125 183.011719 C 152.265625 181.578125 151.671875 180.160156 151.183594 178.710938 C 150.78125 177.519531 150.234375 176.410156 149.511719 175.414062 C 148.167969 173.566406 147.25 171.5 146.28125 169.460938 C 145.695312 168.230469 145.175781 166.96875 144.605469 165.730469 C 144.375 165.230469 144.140625 164.707031 143.808594 164.277344 C 142.738281 162.882812 142.328125 161.214844 141.738281 159.617188 C 141.625 159.308594 141.785156 159.042969 141.835938 158.753906 C 142.011719 157.703125 141.824219 156.726562 141.152344 155.855469 C 140.832031 155.4375 140.417969 155.289062 139.921875 155.328125 C 139.105469 155.394531 138.441406 155.796875 137.960938 156.421875 C 137.390625 157.164062 137.589844 157.96875 138.03125 158.703125 C 138.476562 159.441406 139.046875 160.074219 139.8125 160.507812 C 139.976562 160.515625 140.140625 160.523438 140.304688 160.53125 C 140.496094 160.429688 140.683594 160.328125 140.867188 160.222656 C 141.089844 160.09375 141.28125 160.105469 141.378906 160.359375 C 141.546875 160.796875 141.75 161.234375 141.839844 161.6875 C 142.015625 162.59375 142.425781 163.382812 142.902344 164.144531 C 143.585938 165.238281 144.101562 166.414062 144.605469 167.59375 C 145.90625 170.65625 147.242188 173.699219 149.175781 176.441406 C 149.738281 177.242188 150.160156 178.136719 150.464844 179.085938 C 150.9375 180.550781 151.652344 181.929688 152.070312 183.417969 C 152.578125 185.226562 153.128906 187.023438 153.582031 188.847656 C 153.839844 189.890625 153.730469 190.980469 153.691406 192.050781 C 153.535156 196.070312 153.3125 200.089844 152.765625 204.082031 C 152.515625 205.898438 152.289062 207.726562 151.769531 209.5 C 151.734375 209.835938 151.707031 210.167969 151.65625 210.5 C 151.625 210.695312 151.574219 210.914062 151.246094 210.898438 C 151.195312 210.539062 151.140625 210.167969 151.089844 209.796875 C 150.78125 208.460938 150.796875 207.078125 150.5625 205.734375 C 150.085938 203.003906 149.808594 200.230469 148.886719 197.589844 C 148.804688 197.351562 148.808594 197.085938 148.773438 196.832031 C 148.65625 196.738281 148.632812 196.613281 148.652344 196.476562 C 148.632812 195.878906 148.605469 195.28125 148.589844 194.683594 C 148.546875 192.976562 148.257812 191.285156 148.167969 189.589844 C 148.054688 187.394531 147.613281 185.269531 147.179688 183.136719 C 146.707031 180.839844 145.644531 178.785156 144.472656 176.789062 C 144.261719 176.421875 143.945312 176.113281 143.640625 175.816406 C 142.34375 174.546875 141.296875 173.097656 140.484375 171.472656 C 139.871094 170.25 139.042969 169.144531 138.542969 167.859375 C 138.480469 167.703125 138.367188 167.554688 138.171875 167.554688 C 137.90625 167.5625 137.832031 167.785156 137.753906 167.980469 C 137.707031 168.097656 137.707031 168.230469 137.699219 168.359375 C 137.648438 168.996094 137.601562 169.636719 137.550781 170.277344 C 137.523438 170.660156 137.484375 171.042969 137.449219 171.429688 C 137.542969 171.601562 137.542969 171.773438 137.445312 171.945312 C 137.394531 173.265625 137.339844 174.585938 137.292969 175.90625 C 137.261719 176.855469 137.410156 177.785156 137.589844 178.710938 C 137.972656 180.730469 138.632812 182.671875 139.300781 184.609375 C 139.71875 185.824219 140.417969 186.910156 141.136719 187.96875 C 141.738281 188.851562 142.320312 189.742188 142.828125 190.683594 C 143.132812 191.246094 143.464844 191.828125 143.917969 192.265625 C 144.890625 193.207031 145.484375 194.394531 146.1875 195.511719 C 146.644531 196.234375 147.035156 196.996094 147.570312 197.667969 C 148.257812 198.53125 148.574219 199.546875 148.789062 200.597656 C 149.109375 202.148438 149.445312 203.691406 149.691406 205.253906 C 149.9375 206.816406 149.988281 208.410156 150.285156 209.957031 C 150.636719 211.785156 150.832031 213.96875 150.535156 216.980469 C 150.445312 217.914062 150.398438 217.949219 150.253906 218.882812 C 149.890625 221.289062 149.660156 223.707031 149.296875 226.113281 C 149.265625 226.320312 149.238281 226.554688 149.375 226.71875 C 149.484375 226.855469 149.667969 226.894531 149.835938 226.929688 C 149.945312 226.953125 150.058594 226.972656 150.160156 226.941406 C 150.390625 226.867188 150.320312 226.558594 150.324219 226.375 C 150.328125 226.085938 150.519531 225.648438 150.484375 225.398438 C 150.429688 225.050781 150.429688 224.710938 150.535156 224.371094 C 150.539062 222.574219 150.921875 220.816406 151.167969 219.046875 C 151.285156 218.203125 151.527344 218.5625 151.515625 217.722656 C 151.507812 217.113281 152.351562 212.035156 152.414062 211.707031 C 152.574219 210.863281 152.792969 210.035156 152.929688 209.191406 C 153.214844 207.453125 153.714844 205.773438 154.363281 204.144531 C 154.980469 202.585938 155.355469 200.957031 155.882812 199.371094 C 156.378906 197.867188 156.65625 196.308594 157.046875 194.777344 C 157.160156 194.324219 157.320312 193.878906 157.496094 193.445312 C 157.742188 192.851562 158.007812 192.277344 158.109375 191.628906 C 158.242188 190.742188 158.855469 190.101562 159.402344 189.449219 C 159.8125 188.964844 160.300781 188.539062 160.769531 188.101562 C 161.589844 187.335938 162.203125 186.414062 162.835938 185.496094 C 164.238281 183.464844 165.265625 181.269531 165.648438 178.808594 C 165.964844 176.78125 165.96875 174.730469 165.714844 172.679688 Z M 165.714844 172.679688 " fill-opacity="1" fill-rule="nonzero"/><g clip-path="url(#a138943359)"><path fill="#f8cf40" d="M 211.539062 154.632812 C 211.546875 154.609375 211.566406 154.59375 211.59375 154.59375 C 211.613281 154.59375 211.640625 154.609375 211.644531 154.632812 C 212.152344 156.019531 216.023438 166.445312 219.378906 170.066406 C 222.71875 173.667969 231.8125 177.25 233.035156 177.726562 C 233.058594 177.734375 233.074219 177.753906 233.074219 177.777344 C 233.074219 177.796875 233.058594 177.820312 233.035156 177.828125 C 231.800781 178.316406 222.507812 182.027344 219.164062 185.636719 C 215.820312 189.242188 212.152344 199.476562 211.648438 200.90625 C 211.640625 200.929688 211.617188 200.945312 211.59375 200.945312 C 211.566406 200.945312 211.546875 200.929688 211.542969 200.902344 C 211.125 199.476562 208.101562 189.429688 204.765625 185.824219 C 201.40625 182.199219 191.378906 178.296875 190.140625 177.824219 C 190.113281 177.816406 190.105469 177.796875 190.097656 177.773438 C 190.097656 177.75 190.113281 177.730469 190.132812 177.71875 C 191.328125 177.175781 200.890625 172.765625 204.246094 169.144531 C 207.589844 165.535156 211.0625 155.960938 211.539062 154.632812 Z M 211.539062 154.632812 " fill-opacity="1" fill-rule="evenodd"/></g><g fill="#f8cf40" fill-opacity="1"><g transform="translate(101.141991, 362.562376)"><g><path d="M 11.714844 6.105469 C 12.515625 6.105469 13.378906 5.917969 14.367188 5.550781 C 19.296875 3.882812 27.191406 -2.960938 34.957031 -10.234375 C 41.925781 -11.035156 48.523438 -10.972656 49.449219 -9.617188 C 49.570312 -9.433594 49.570312 -9.371094 49.570312 -9.308594 C 49.570312 -9 49.570312 -8.691406 49.878906 -8.570312 C 50.1875 -8.445312 50.496094 -8.632812 50.617188 -8.941406 C 50.867188 -9.496094 50.679688 -9.988281 50.1875 -10.417969 C 48.585938 -11.777344 42.851562 -12.207031 36.316406 -11.53125 C 38.78125 -13.871094 41.183594 -15.414062 43.464844 -17.816406 C 43.773438 -17.015625 43.960938 -16.585938 44.023438 -16.523438 C 44.144531 -16.214844 44.515625 -16.152344 44.824219 -16.277344 C 45.070312 -16.398438 45.191406 -16.769531 45.007812 -17.078125 C 45.007812 -17.078125 44.699219 -17.695312 44.328125 -18.804688 C 52.035156 -27.066406 58.203125 -35.328125 59.433594 -40.074219 C 60.730469 -44.945312 59.683594 -47.167969 58.632812 -48.214844 C 57.523438 -49.261719 55.859375 -49.570312 53.949219 -49.015625 C 49.816406 -47.78125 44.699219 -42.664062 42.910156 -35.203125 C 41.183594 -27.804688 42.109375 -22.195312 43.035156 -19.113281 C 40.261719 -16.152344 37.300781 -14.058594 34.34375 -11.34375 C 29.410156 -10.667969 24.230469 -8.632812 20.347656 -6.90625 C 13.6875 -3.945312 9.554688 1.417969 9.25 4.007812 C 9.1875 4.871094 9.496094 5.300781 9.742188 5.488281 C 10.296875 5.917969 10.914062 6.105469 11.714844 6.105469 Z M 43.960938 -20.097656 C 43.160156 -23.183594 42.480469 -28.359375 44.023438 -34.957031 C 45.6875 -41.988281 50.433594 -46.796875 54.257812 -47.90625 C 54.8125 -48.027344 55.304688 -48.152344 55.796875 -48.152344 C 56.597656 -48.152344 57.339844 -47.90625 57.832031 -47.414062 C 59.003906 -46.242188 59.1875 -43.714844 58.324219 -40.382812 C 57.214844 -35.945312 51.296875 -28.054688 43.960938 -20.097656 Z M 10.480469 4.625 C 10.417969 4.5625 10.359375 4.4375 10.417969 4.191406 C 10.667969 2.097656 14.304688 -2.960938 20.839844 -5.855469 C 24.355469 -7.398438 28.667969 -9.308594 32.921875 -9.988281 C 25.648438 -3.328125 18.496094 2.960938 13.996094 4.5 C 12.332031 5.054688 11.097656 5.117188 10.480469 4.625 Z M 10.480469 4.625 "/></g></g></g><g fill="#f8cf40" fill-opacity="1"><g transform="translate(152.130552, 362.562376)"><g><path d="M 1.480469 -5.363281 C 3.515625 -5.363281 9.1875 -6.105469 16.460938 -8.507812 C 16.707031 -8.570312 16.894531 -8.878906 16.769531 -9.1875 C 16.707031 -9.496094 16.398438 -9.617188 16.09375 -9.554688 C 8.632812 -7.089844 2.773438 -6.414062 1.234375 -6.472656 C 0.308594 -6.535156 -0.554688 -6.84375 -0.679688 -7.214844 C -0.800781 -7.398438 -0.617188 -7.707031 -0.429688 -7.890625 C 0 -8.445312 0.863281 -9 1.851562 -9.433594 C 3.328125 -8.816406 5.980469 -8.878906 7.398438 -9.617188 C 8.507812 -10.234375 8.570312 -10.851562 8.445312 -11.222656 C 8.199219 -12.085938 6.660156 -11.960938 6.164062 -11.898438 C 5.242188 -11.835938 3.390625 -11.34375 1.726562 -10.605469 L 1.601562 -10.542969 C 0.371094 -9.988281 -0.738281 -9.308594 -1.292969 -8.570312 C -1.972656 -7.769531 -1.851562 -7.152344 -1.726562 -6.78125 C -1.355469 -5.917969 -0.183594 -5.488281 1.480469 -5.363281 Z M 3.574219 -10.171875 C 4.6875 -10.542969 5.734375 -10.789062 6.289062 -10.851562 L 7.214844 -10.851562 L 6.84375 -10.605469 C 6.105469 -10.171875 4.746094 -10.050781 3.574219 -10.171875 Z M 3.574219 -10.171875 "/></g></g></g><g fill="#f8cf40" fill-opacity="1"><g transform="translate(169.332267, 362.562376)"><g><path d="M -0.925781 -5.242188 C -0.492188 -5.242188 -0.0625 -5.300781 0.125 -5.363281 C 0.863281 -5.550781 2.34375 -6.289062 4.625 -7.582031 C 4.070312 -6.597656 4.191406 -6.105469 4.378906 -5.796875 C 4.871094 -4.933594 6.164062 -5.242188 6.597656 -5.363281 C 8.199219 -5.734375 13.378906 -8.878906 15.660156 -10.234375 C 15.660156 -9.804688 15.785156 -9.308594 16.214844 -8.878906 C 16.957031 -8.078125 18.375 -7.953125 20.46875 -8.507812 C 20.777344 -8.570312 20.960938 -8.878906 20.839844 -9.1875 C 20.777344 -9.433594 20.46875 -9.617188 20.160156 -9.554688 C 18.558594 -9.125 17.449219 -9.125 17.015625 -9.617188 C 16.523438 -10.113281 16.832031 -11.097656 16.832031 -11.097656 C 16.894531 -11.34375 16.832031 -11.589844 16.648438 -11.714844 C 16.460938 -11.898438 16.214844 -11.898438 16.03125 -11.777344 C 13.8125 -10.417969 7.832031 -6.78125 6.351562 -6.414062 C 5.980469 -6.351562 5.671875 -6.351562 5.550781 -6.351562 L 5.363281 -6.351562 C 5.300781 -6.472656 5.550781 -7.273438 7.089844 -9 C 7.214844 -9.25 7.273438 -9.554688 7.089844 -9.742188 C 6.90625 -9.925781 6.597656 -9.988281 6.351562 -9.863281 C 1.789062 -7.152344 0.308594 -6.535156 -0.125 -6.414062 C -0.800781 -6.289062 -1.046875 -6.289062 -1.109375 -6.351562 C -1.171875 -6.660156 -0.492188 -8.078125 2.652344 -11.097656 C 2.898438 -11.28125 2.898438 -11.652344 2.652344 -11.835938 C 2.464844 -12.085938 2.097656 -12.085938 1.910156 -11.898438 C -2.898438 -7.273438 -2.28125 -6.164062 -2.097656 -5.796875 C -1.851562 -5.363281 -1.355469 -5.242188 -0.925781 -5.242188 Z M -0.925781 -5.242188 "/></g></g></g><g fill="#f8cf40" fill-opacity="1"><g transform="translate(190.603173, 362.562376)"><g><path d="M 1.480469 -5.363281 C 3.515625 -5.363281 9.1875 -6.105469 16.460938 -8.507812 C 16.707031 -8.570312 16.894531 -8.878906 16.769531 -9.1875 C 16.707031 -9.496094 16.398438 -9.617188 16.09375 -9.554688 C 8.632812 -7.089844 2.773438 -6.414062 1.234375 -6.472656 C 0.308594 -6.535156 -0.554688 -6.84375 -0.679688 -7.214844 C -0.800781 -7.398438 -0.617188 -7.707031 -0.429688 -7.890625 C 0 -8.445312 0.863281 -9 1.851562 -9.433594 C 3.328125 -8.816406 5.980469 -8.878906 7.398438 -9.617188 C 8.507812 -10.234375 8.570312 -10.851562 8.445312 -11.222656 C 8.199219 -12.085938 6.660156 -11.960938 6.164062 -11.898438 C 5.242188 -11.835938 3.390625 -11.34375 1.726562 -10.605469 L 1.601562 -10.542969 C 0.371094 -9.988281 -0.738281 -9.308594 -1.292969 -8.570312 C -1.972656 -7.769531 -1.851562 -7.152344 -1.726562 -6.78125 C -1.355469 -5.917969 -0.183594 -5.488281 1.480469 -5.363281 Z M 3.574219 -10.171875 C 4.6875 -10.542969 5.734375 -10.789062 6.289062 -10.851562 L 7.214844 -10.851562 L 6.84375 -10.605469 C 6.105469 -10.171875 4.746094 -10.050781 3.574219 -10.171875 Z M 3.574219 -10.171875 "/></g></g></g><g fill="#f8cf40" fill-opacity="1"><g transform="translate(207.804888, 362.562376)"><g><path d="M -0.246094 -5.363281 L 0.371094 -5.425781 C 2.097656 -5.609375 7.460938 -7.214844 11.035156 -8.507812 C 11.34375 -8.632812 11.46875 -8.941406 11.34375 -9.25 C 11.222656 -9.496094 10.914062 -9.617188 10.605469 -9.496094 C 7.214844 -8.261719 1.851562 -6.660156 0.246094 -6.535156 C -0.679688 -6.472656 -0.988281 -6.597656 -0.988281 -6.660156 C -0.988281 -6.660156 -1.292969 -6.96875 1.109375 -9.308594 C 3.574219 -10.417969 15.84375 -16.648438 17.386719 -20.46875 C 17.695312 -21.210938 17.386719 -21.578125 17.203125 -21.765625 C 15.414062 -22.996094 4.6875 -14.058594 1.171875 -10.851562 L 0.429688 -10.171875 C -2.28125 -7.523438 -2.28125 -6.78125 -2.035156 -6.226562 C -1.789062 -5.671875 -1.171875 -5.363281 -0.246094 -5.363281 Z M 4.070312 -11.960938 C 9.433594 -16.585938 14.734375 -20.222656 16.339844 -20.714844 C 15.167969 -18.375 8.753906 -14.425781 4.070312 -11.960938 Z M 4.070312 -11.960938 "/></g></g></g><g fill="#f8cf40" fill-opacity="1"><g transform="translate(219.642624, 362.562376)"><g><path d="M 1.046875 -5.363281 L 1.789062 -5.363281 C 5.363281 -5.363281 13.933594 -8.386719 14.304688 -8.507812 C 14.613281 -8.632812 14.734375 -8.941406 14.613281 -9.1875 C 14.550781 -9.496094 14.242188 -9.617188 13.933594 -9.554688 C 11.160156 -8.570312 3.515625 -6.105469 1.234375 -6.472656 C 1.726562 -7.273438 4.808594 -9.308594 7.582031 -10.789062 C 7.832031 -10.972656 7.953125 -11.222656 7.832031 -11.46875 C 7.769531 -11.714844 7.523438 -11.898438 7.214844 -11.835938 C 6.164062 -11.652344 5.054688 -11.589844 4.253906 -11.589844 C 4.070312 -12.394531 3.453125 -13.070312 3.019531 -13.316406 C 2.527344 -13.5625 2.21875 -13.378906 2.097656 -13.253906 C 1.601562 -12.886719 1.789062 -12.207031 1.910156 -11.714844 C 2.035156 -11.28125 2.34375 -11.035156 2.710938 -10.851562 C 2.097656 -10.417969 0.863281 -9.988281 -0.308594 -9.554688 C -0.617188 -9.433594 -0.679688 -9.125 -0.617188 -8.878906 C -0.492188 -8.570312 -0.183594 -8.386719 0.0625 -8.507812 C 1.601562 -9.0625 3.390625 -9.742188 4.007812 -10.542969 L 4.808594 -10.480469 C 2.21875 -8.941406 -0.125 -7.273438 0.0625 -6.226562 C 0.125 -5.980469 0.308594 -5.550781 1.046875 -5.363281 Z M 1.046875 -5.363281 "/></g></g></g><g fill="#f8cf40" fill-opacity="1"><g transform="translate(234.686424, 362.562376)"><g><path d="M 16.277344 -9.25 C 16.152344 -9.496094 15.84375 -9.617188 15.535156 -9.496094 C 12.578125 -8.570312 8.632812 -7.027344 4.253906 -5.363281 L 2.464844 -4.6875 C 6.164062 -7.644531 8.941406 -9.679688 9 -9.742188 C 9 -9.742188 9.0625 -9.804688 9.0625 -9.804688 L 9.433594 -9.988281 C 9.679688 -10.171875 9.804688 -10.480469 9.617188 -10.726562 C 9.496094 -11.035156 9.1875 -11.160156 8.941406 -10.972656 C 5.855469 -9.433594 -0.429688 -6.289062 -1.851562 -6.414062 C -1.726562 -6.84375 -0.925781 -7.953125 1.664062 -9.554688 C 2.097656 -9.804688 2.40625 -10.113281 2.710938 -10.296875 L 3.328125 -10.789062 C 3.636719 -10.914062 3.699219 -11.28125 3.515625 -11.53125 C 3.328125 -11.777344 3.019531 -11.835938 2.773438 -11.652344 L 2.035156 -11.160156 C 1.789062 -10.972656 1.480469 -10.726562 1.046875 -10.480469 C -1.601562 -8.816406 -3.082031 -7.214844 -2.960938 -6.226562 C -2.960938 -5.855469 -2.710938 -5.550781 -2.40625 -5.425781 C -2.21875 -5.363281 -2.035156 -5.363281 -1.851562 -5.363281 C -0.738281 -5.363281 1.171875 -6.042969 4.746094 -7.707031 C 2.835938 -6.226562 0.863281 -4.808594 -0.988281 -3.328125 C -8.691406 -0.308594 -13.8125 2.34375 -14.675781 4.316406 C -14.859375 4.6875 -15.414062 5.917969 -14.675781 6.472656 C -14.550781 6.535156 -14.367188 6.71875 -13.996094 6.71875 C -12.949219 6.71875 -10.050781 5.179688 -1.601562 -1.480469 L -0.429688 -2.40625 L 4.625 -4.316406 C 9 -5.980469 13.007812 -7.582031 16.03125 -8.507812 C 16.277344 -8.570312 16.398438 -9 16.277344 -9.25 Z M -13.933594 5.550781 C -13.933594 5.488281 -13.933594 5.242188 -13.6875 4.746094 C -13.070312 3.453125 -8.941406 1.046875 -4.191406 -0.925781 C -9 2.710938 -12.949219 5.671875 -13.933594 5.550781 Z M -13.933594 5.550781 "/></g></g></g><g fill="#f8cf40" fill-opacity="1"><g transform="translate(102.460243, 326.371213)"><g><path d="M 2.875 -0.390625 C 3.5625 -0.390625 4.144531 -0.628906 4.625 -1.109375 C 5.113281 -1.597656 5.367188 -2.1875 5.390625 -2.875 L 5.390625 -24.9375 C 5.390625 -25.5625 5.140625 -26.085938 4.640625 -26.515625 C 4.148438 -26.953125 3.5625 -27.171875 2.875 -27.171875 L 2.40625 -27.171875 L 2.359375 -27.578125 L 10.359375 -27.578125 C 11.171875 -27.578125 12.054688 -27.65625 13.015625 -27.8125 C 13.972656 -27.96875 14.648438 -28.125 15.046875 -28.28125 L 15.046875 -23.3125 L 14.65625 -23.3125 L 14.65625 -24.03125 C 14.65625 -24.65625 14.4375 -25.191406 14 -25.640625 C 13.570312 -26.085938 13.054688 -26.328125 12.453125 -26.359375 L 7.953125 -26.359375 L 7.953125 -14.1875 L 15.4375 -14.1875 C 15.96875 -14.207031 16.414062 -14.398438 16.78125 -14.765625 C 17.144531 -15.140625 17.328125 -15.601562 17.328125 -16.15625 L 17.328125 -16.703125 L 17.71875 -16.703125 L 17.71875 -10.484375 L 17.328125 -10.484375 L 17.328125 -11.0625 C 17.328125 -11.59375 17.148438 -12.039062 16.796875 -12.40625 C 16.441406 -12.769531 16.003906 -12.96875 15.484375 -13 L 7.953125 -13 L 7.953125 -1.21875 L 16.34375 -1.21875 C 18.289062 -1.21875 19.773438 -1.648438 20.796875 -2.515625 C 21.816406 -3.390625 22.671875 -4.675781 23.359375 -6.375 L 23.75 -6.375 L 21.46875 0 L 2.359375 0 L 2.359375 -0.390625 Z M 2.875 -0.390625 "/></g></g></g><g fill="#f8cf40" fill-opacity="1"><g transform="translate(124.67381, 326.371213)"><g><path d="M 21.671875 -27.578125 L 29.59375 -27.578125 L 29.59375 -27.171875 L 29.234375 -27.171875 C 28.578125 -27.171875 27.929688 -26.96875 27.296875 -26.5625 C 26.671875 -26.15625 26.175781 -25.546875 25.8125 -24.734375 L 16.3125 -3.5 C 15.34375 -1.375 14.859375 -0.0234375 14.859375 0.546875 L 14.5 0.546875 L 3.4375 -24.703125 C 3.070312 -25.535156 2.566406 -26.15625 1.921875 -26.5625 C 1.273438 -26.96875 0.625 -27.171875 -0.03125 -27.171875 L -0.34375 -27.171875 L -0.34375 -27.578125 L 8.515625 -27.578125 L 8.515625 -27.171875 L 8.15625 -27.171875 C 7.601562 -27.171875 7.1875 -26.992188 6.90625 -26.640625 C 6.632812 -26.285156 6.5 -25.957031 6.5 -25.65625 C 6.5 -25.351562 6.566406 -25.046875 6.703125 -24.734375 L 14.9375 -4.09375 L 23.53125 -24.734375 C 23.632812 -25.046875 23.6875 -25.351562 23.6875 -25.65625 C 23.6875 -25.957031 23.546875 -26.285156 23.265625 -26.640625 C 22.992188 -26.992188 22.582031 -27.171875 22.03125 -27.171875 L 21.671875 -27.171875 Z M 21.671875 -27.578125 "/></g></g></g><g fill="#f8cf40" fill-opacity="1"><g transform="translate(152.125776, 326.371213)"><g><path d="M 2.875 -0.390625 C 3.5625 -0.390625 4.144531 -0.628906 4.625 -1.109375 C 5.113281 -1.597656 5.367188 -2.1875 5.390625 -2.875 L 5.390625 -24.9375 C 5.390625 -25.5625 5.140625 -26.085938 4.640625 -26.515625 C 4.148438 -26.953125 3.5625 -27.171875 2.875 -27.171875 L 2.40625 -27.171875 L 2.359375 -27.578125 L 13.90625 -27.578125 C 14.71875 -27.578125 15.601562 -27.65625 16.5625 -27.8125 C 17.519531 -27.96875 18.195312 -28.125 18.59375 -28.28125 L 18.59375 -23.3125 L 18.203125 -23.3125 L 18.203125 -24.03125 C 18.203125 -24.65625 17.984375 -25.191406 17.546875 -25.640625 C 17.117188 -26.085938 16.601562 -26.328125 16 -26.359375 L 7.953125 -26.359375 L 7.953125 -14.1875 L 14.609375 -14.1875 C 15.140625 -14.207031 15.585938 -14.398438 15.953125 -14.765625 C 16.316406 -15.140625 16.5 -15.601562 16.5 -16.15625 L 16.5 -16.703125 L 16.90625 -16.703125 L 16.90625 -10.484375 L 16.5 -10.484375 L 16.5 -11.0625 C 16.5 -11.59375 16.320312 -12.039062 15.96875 -12.40625 C 15.613281 -12.769531 15.175781 -12.96875 14.65625 -13 L 7.953125 -13 L 7.953125 -1.21875 L 13.59375 -1.21875 C 15.53125 -1.21875 17.007812 -1.648438 18.03125 -2.515625 C 19.0625 -3.390625 19.914062 -4.675781 20.59375 -6.375 L 21 -6.375 L 18.703125 0 L 2.359375 0 L 2.359375 -0.390625 Z M 2.875 -0.390625 "/></g></g></g><g fill="#f8cf40" fill-opacity="1"><g transform="translate(173.157739, 326.371213)"><g><path d="M 30.640625 -27.171875 C 29.984375 -27.171875 29.421875 -26.941406 28.953125 -26.484375 C 28.484375 -26.023438 28.234375 -25.46875 28.203125 -24.8125 L 28.203125 -4.484375 C 28.203125 -2.960938 28.296875 -1.519531 28.484375 -0.15625 L 28.5625 0.546875 L 28.203125 0.546875 L 6.734375 -22.375 L 6.734375 -2.75 C 6.734375 -2.09375 6.96875 -1.535156 7.4375 -1.078125 C 7.914062 -0.617188 8.484375 -0.390625 9.140625 -0.390625 L 9.890625 -0.390625 L 9.890625 0 L 1.765625 0 L 1.765625 -0.390625 L 2.515625 -0.390625 C 3.171875 -0.390625 3.734375 -0.617188 4.203125 -1.078125 C 4.679688 -1.535156 4.921875 -2.109375 4.921875 -2.796875 L 4.921875 -23.234375 C 4.921875 -24.835938 4.828125 -26.269531 4.640625 -27.53125 L 4.5625 -28.171875 L 4.96875 -28.171875 L 26.4375 -5.234375 L 26.4375 -24.78125 C 26.40625 -25.457031 26.148438 -26.023438 25.671875 -26.484375 C 25.203125 -26.941406 24.640625 -27.171875 23.984375 -27.171875 L 23.234375 -27.171875 L 23.234375 -27.578125 L 31.359375 -27.578125 L 31.359375 -27.171875 Z M 30.640625 -27.171875 "/></g></g></g><g fill="#f8cf40" fill-opacity="1"><g transform="translate(204.587742, 326.371213)"><g><path d="M 23.203125 -24.0625 C 23.203125 -24.695312 22.976562 -25.242188 22.53125 -25.703125 C 22.082031 -26.160156 21.554688 -26.40625 20.953125 -26.4375 L 13.46875 -26.4375 L 13.46875 -2.84375 C 13.5 -2.15625 13.753906 -1.570312 14.234375 -1.09375 C 14.722656 -0.625 15.3125 -0.390625 16 -0.390625 L 16.5 -0.390625 L 16.5 0 L 7.875 0 L 7.875 -0.390625 L 8.390625 -0.390625 C 9.078125 -0.390625 9.660156 -0.625 10.140625 -1.09375 C 10.628906 -1.570312 10.882812 -2.140625 10.90625 -2.796875 L 10.90625 -26.4375 L 3.421875 -26.4375 C 2.796875 -26.40625 2.265625 -26.160156 1.828125 -25.703125 C 1.398438 -25.242188 1.1875 -24.695312 1.1875 -24.0625 L 1.1875 -23.390625 L 0.78125 -23.359375 L 0.78125 -28.328125 C 1.175781 -28.160156 1.859375 -28 2.828125 -27.84375 C 3.804688 -27.6875 4.703125 -27.609375 5.515625 -27.609375 L 18.828125 -27.609375 C 20.117188 -27.609375 21.1875 -27.707031 22.03125 -27.90625 C 22.882812 -28.101562 23.40625 -28.242188 23.59375 -28.328125 L 23.59375 -23.359375 L 23.203125 -23.390625 Z M 23.203125 -24.0625 "/></g></g></g><g fill="#f8cf40" fill-opacity="1"><g transform="translate(227.234551, 326.371213)"><g><path d="M 5.78125 -24.15625 C 8.59375 -26.800781 12.238281 -28.125 16.71875 -28.125 C 21.195312 -28.125 24.835938 -26.800781 27.640625 -24.15625 C 30.453125 -21.519531 31.859375 -18.0625 31.859375 -13.78125 C 31.859375 -9.5 30.453125 -6.039062 27.640625 -3.40625 C 24.835938 -0.769531 21.195312 0.546875 16.71875 0.546875 C 12.238281 0.546875 8.59375 -0.769531 5.78125 -3.40625 C 2.976562 -6.039062 1.578125 -9.5 1.578125 -13.78125 C 1.578125 -18.0625 2.976562 -21.519531 5.78125 -24.15625 Z M 7.9375 -4.25 C 10.15625 -1.832031 13.078125 -0.625 16.703125 -0.625 C 20.328125 -0.625 23.25 -1.832031 25.46875 -4.25 C 27.6875 -6.664062 28.796875 -9.84375 28.796875 -13.78125 C 28.796875 -17.71875 27.6875 -20.894531 25.46875 -23.3125 C 23.25 -25.726562 20.328125 -26.9375 16.703125 -26.9375 C 13.078125 -26.9375 10.15625 -25.726562 7.9375 -23.3125 C 5.71875 -20.894531 4.609375 -17.71875 4.609375 -13.78125 C 4.609375 -9.84375 5.71875 -6.664062 7.9375 -4.25 Z M 7.9375 -4.25 "/></g></g></g><g fill="#f8cf40" fill-opacity="1"><g transform="translate(258.940254, 326.371213)"><g><path d="M 2.40625 -1.609375 C 2.320312 -1.984375 2.28125 -2.691406 2.28125 -3.734375 C 2.28125 -4.785156 2.476562 -5.90625 2.875 -7.09375 L 3.234375 -7.09375 C 3.203125 -6.800781 3.1875 -6.507812 3.1875 -6.21875 C 3.1875 -4.625 3.671875 -3.289062 4.640625 -2.21875 C 5.617188 -1.15625 6.910156 -0.625 8.515625 -0.625 C 10.160156 -0.625 11.515625 -1.125 12.578125 -2.125 C 13.648438 -3.125 14.1875 -4.378906 14.1875 -5.890625 C 14.1875 -7.398438 13.671875 -8.628906 12.640625 -9.578125 L 5.078125 -16.578125 C 3.660156 -17.890625 2.953125 -19.476562 2.953125 -21.34375 C 2.953125 -23.207031 3.578125 -24.800781 4.828125 -26.125 C 6.078125 -27.457031 7.765625 -28.125 9.890625 -28.125 C 10.890625 -28.125 12.019531 -27.992188 13.28125 -27.734375 L 14.8125 -27.734375 L 14.8125 -22.890625 L 14.453125 -22.890625 C 14.453125 -24.117188 14.023438 -25.097656 13.171875 -25.828125 C 12.316406 -26.566406 11.21875 -26.9375 9.875 -26.9375 C 8.539062 -26.9375 7.421875 -26.488281 6.515625 -25.59375 C 5.609375 -24.707031 5.15625 -23.59375 5.15625 -22.25 C 5.15625 -20.914062 5.679688 -19.765625 6.734375 -18.796875 L 14.5 -11.625 C 15.8125 -10.414062 16.46875 -8.757812 16.46875 -6.65625 C 16.46875 -4.550781 15.796875 -2.820312 14.453125 -1.46875 C 13.117188 -0.125 11.332031 0.546875 9.09375 0.546875 C 7.9375 0.546875 6.707031 0.367188 5.40625 0.015625 C 4.113281 -0.335938 3.113281 -0.878906 2.40625 -1.609375 Z M 2.40625 -1.609375 "/></g></g></g></svg>